<svg xmlns="http://www.w3.org/2000/svg" viewBox="0 0 481.95 468.58"><defs><style>.cls-1{fill:#fcd3b3;}.cls-2{fill:#ac4936;}.cls-3{fill:#070707;}.cls-4{fill:#231f20;}.cls-5{fill:#fff;}</style></defs><title>Asset 18amazed-harry</title><g id="Layer_2" data-name="Layer 2"><g id="Layer_1-2" data-name="Layer 1"><polyline class="cls-1" points="206.86 303.83 206.86 215.74 271.7 215.74 271.7 303.83"/><ellipse class="cls-1" cx="240.71" cy="137.52" rx="86.91" ry="102.23"/><path class="cls-2" d="M206.86,232.58a47.24,47.24,0,0,0,7.34,4.56,53.65,53.65,0,0,0,8,3.33A52.24,52.24,0,0,0,239,243.25a49.13,49.13,0,0,0,8.56-.64c1.42-.17,2.81-.54,4.22-.81l2.08-.56c.7-.17,1.39-.36,2.07-.59a76.32,76.32,0,0,0,15.73-7.09c-1.21.78-2.42,1.59-3.66,2.33s-2.51,1.47-3.81,2.1-2.6,1.3-4,1.83l-2,.83-2.05.73c-1.36.52-2.79.85-4.19,1.26s-2.83.68-4.28.87a49.8,49.8,0,0,1-8.71.74,51.12,51.12,0,0,1-17.14-3.05A47.88,47.88,0,0,1,206.86,232.58Z"/><path class="cls-3" d="M150.18,164.22a4.71,4.71,0,0,0-2.64,2.5,19.64,19.64,0,0,0-1.8,8.16c0,.53,0,1.06,0,1.69a5.56,5.56,0,0,1-3.35-2.12c-2.1-2.49-3-5.51-3.7-8.59-1.79-8.2-2-16.52-1.73-24.85.2-5.62.66-11.23,1-16.85,0-.48,0-1,0-1.52-5-.55-9.64.25-13.82,3.21a2.33,2.33,0,0,1,.26-2.81,17.78,17.78,0,0,1,3.33-3.38c2.22-1.58,4.62-2.91,7-4.38-2.56-1.64-5.42-1.59-8.7-1.1.37-.82.48-1.6.92-1.91a32.45,32.45,0,0,1,4.47-2.65,32,32,0,0,1,4-1.37c-2.9-2.37-6.19-2.89-9.72-2.79a3.59,3.59,0,0,1,1.76-2.47,12.38,12.38,0,0,1,6.14-1.85c.92-.06,1.28-.32,1.45-1.29,1.29-7.51,2.74-15,3.94-22.53a49.56,49.56,0,0,0,.3-7.72,4.9,4.9,0,0,0-.71-1.69c-.56.26-1.29.37-1.65.8-2.42,2.92-4.78,5.9-7.13,8.87-.54.67-1,1.4-1.65,2.34,0-1.72-.07-3.14,0-4.56a44.64,44.64,0,0,1,4.61-18.3c3.79-7.33,9.69-12.52,16.92-16.22,4.05-2.07,8.24-3.85,12.41-5.68A39.18,39.18,0,0,0,172.44,29c4.44-3.88,9.77-6.36,15.13-8.72,2.92-1.29,5.82-2.62,8.81-3.72,4.31-1.59,7.76-4.32,11.08-7.41A36.83,36.83,0,0,1,220.08,1a35,35,0,0,1,4.22-1l.11.36c-1.28,1.11-2.65,2.13-3.83,3.33-2.06,2.12-4,4.33-6,6.55a5.12,5.12,0,0,0-.87,1.71c-.32.86,0,1.36.94,1.31a9.31,9.31,0,0,0,2.33-.44,140.06,140.06,0,0,1,20.94-5.25,109.2,109.2,0,0,1,24.76-1.44,74.46,74.46,0,0,1,23.72,5c6,2.45,11.19,6.1,16.29,10a126.79,126.79,0,0,1,29.54,31,85.3,85.3,0,0,1,13.42,32.6,101.91,101.91,0,0,1,1.88,21.2c-.21,5.85-1,11.61-4.09,16.75a51.18,51.18,0,0,1-4.43,6.07,4.68,4.68,0,0,0-.93,5.18c4.72,13.23,3.11,26-3.43,38.25C331.2,178.6,323.29,184,318,189c-.44.41-2.45,1.36-3.11,1.93,0-1,1-2.13,1-2.86-.14-8.94,4-17.73,3.57-26.66a79.67,79.67,0,0,0-3.8-22.15,18.87,18.87,0,0,0-3.63-6.78,11.2,11.2,0,0,0-1.8-1.57c-1-.71-1.76-.51-2.07.7-.5,2-.71,4-1.19,6-.6,2.54-1.25,5.07-2.07,7.54a8.59,8.59,0,0,1-2,2.77,91.29,91.29,0,0,0-6-32.3c.4,5.25,1,10.5-1.83,15.38a47.21,47.21,0,0,0-6.3-20c.21,2.72.6,5.5.6,8.27s-.5,5.49-3,7.51a53.73,53.73,0,0,0-7.11-22c-1.14,5.53-1,10.85-.94,16.4-.31-.45-.5-.7-.66-1-6.29-9.89-13.42-19.1-22.18-26.95a48.76,48.76,0,0,0-5.59-3.88,3.91,3.91,0,0,0-.94-.4c-3-1-5.3,1-4.81,4.12a13.89,13.89,0,0,0,3,6.56q5.4,6.78,11.06,13.34c4.12,4.79,8.49,9.36,11.93,14.69a20.39,20.39,0,0,1,3.26,7.34c.06.35.09.72.17,1.33l-1-.89c-9.36-8.59-18.61-17.3-28.12-25.73-8.16-7.25-16.58-14.2-24.94-21.21-2.24-1.88-4.67-3.52-7.05-5.23A4,4,0,0,0,211,83a3.8,3.8,0,0,0,.07,1.4c1.26,2.54,2.43,5.15,3.93,7.56a159.27,159.27,0,0,0,23.7,30c1.49,1.46,3.12,2.76,4.62,4.36-1.35-.37-2.73-.66-4-1.12a51.89,51.89,0,0,1-14.59-8.53c-3-2.34-5.84-4.87-8.64-7.22.39,2.44,11.5,18.37,17.06,24.28a4.44,4.44,0,0,1-3.72.12,19.94,19.94,0,0,1-7.16-4.34c-6.28-5.37-11.46-11.75-16.41-18.32l-.94-1.22c-.17,6.52,1.39,15,14.88,24.84a7.15,7.15,0,0,1-4,.2,13.48,13.48,0,0,1-6-3.14c-4.13-3.4-7.24-7.68-10.11-12.13-2.78-4.3-5.43-8.7-8.16-13a15.06,15.06,0,0,0-1.69-2.13c-.48-.52-.9-.34-1.05.33a40.32,40.32,0,0,0-.84,13.14c1.17,10.89,6.85,19.38,14.4,26.84,1.81,1.78,3.74,3.44,5.78,5.3a17.42,17.42,0,0,1-6.14-1.4,52.67,52.67,0,0,1-13.77-8.8,141.88,141.88,0,0,1-16.88-16.82c-.33-.39-.68-.77-1.26-1.43-.49,2.9-1,5.45-1.33,8a37.14,37.14,0,0,0,.18,11.81c.79,4,2.37,7.46,6.47,9.61-.79.12-1.28.18-1.76.27-7.15,1.28-11.5,5.78-14.07,12.27A39.7,39.7,0,0,0,156.92,177a54.72,54.72,0,0,0,1.38,15,1.68,1.68,0,0,1-1.9-1,21.64,21.64,0,0,1-2.17-4.85C153,180.84,152,175.55,151,170.27,150.63,168.34,150.46,166.36,150.18,164.22Z"/><path class="cls-4" d="M264.85,123.06c-10.51,56.07,41.18,67.45,36.8,5.26V141.4c4.38-62.19-47.31-50.81-36.8,5.26"/><path class="cls-4" d="M189.42,121.55c-9.23,49.24,36.17,59.24,32.32,4.62v11.49C225.59,83,180.19,93,189.42,142.28"/><path class="cls-5" d="M196.82,114.69c-5.1,27.19,20,32.71,17.84,2.55v6.34c2.13-30.16-22.94-24.63-17.84,2.55"/><path class="cls-5" d="M274.61,115.07c-4.76,25.37,18.63,30.53,16.65,2.38v5.92c2-28.14-21.41-23-16.65,2.38"/><path class="cls-5" d="M308.7,99.46c-1.25-.55-2.51-1.07-3.8-1.53S302.34,97,301,96.6a65.61,65.61,0,0,0-7.9-2A46.72,46.72,0,0,0,285,93.9,34,34,0,0,0,277,95a26.89,26.89,0,0,1,8-1.69,42.11,42.11,0,0,1,8.24.58,54.74,54.74,0,0,1,8,2.16A47.13,47.13,0,0,1,308.7,99.46Z"/><path class="cls-5" d="M179.53,100.75A71.74,71.74,0,0,1,188.34,97a66.67,66.67,0,0,1,9.24-2.5,32.52,32.52,0,0,1,9.6-.44,15,15,0,0,1,4.63,1.34,9.16,9.16,0,0,1,3.59,3.14c-2-2.55-5.21-3.64-8.29-3.91a33.7,33.7,0,0,0-9.39.61,74.57,74.57,0,0,0-9.2,2.31C185.49,98.52,182.49,99.59,179.53,100.75Z"/><path class="cls-5" d="M192.22,144.75c1.1,7.51,8.09,6.71,4.85-.92l.57,1.64c-2.14-8-8.14-4.35-4.4,2.25"/><path class="cls-5" d="M205.26,148.76c-1.39,3.72,5.48,4.48,4.9.34V150c.58-4.13-6.29-3.37-4.9.35"/><path class="cls-5" d="M293.19,138.17c2.93,7-3.48,9.92-4.63,1.71l.36,1.7c-2.3-8,4.74-7.92,4.93-.34"/><path class="cls-5" d="M284.08,148.32c3.11,2.48-2.39,6.67-4,2.82l.45.75c-2.63-3.25,3.65-6.14,4.37-2.22"/><path class="cls-1" d="M408.16,385.78c-.27,4.34-.48,8.69-2.91,12.53A168.16,168.16,0,0,1,380,443.19c-6.43,8.17-14.55,14.05-24.73,16.78a11.35,11.35,0,0,1-6.33.38c-9.41-5.11-18.88-10.13-28-15.73-4.91-6.9-7.62-14.46-6.87-23.05a18.23,18.23,0,0,0-.8-5.72c-.91-7.55,1.78-14.62,3.18-21.84.72-3.73,1-7.73,3.33-11.08,1.31-1.9-1.4-2-1.69-3.28.75-6.57,4.39-12.07,6.94-17.9,8.45-19.35,18.86-37.77,29.8-55.74,10.15-16.66,19-34,29-50.73a64.19,64.19,0,0,0,3.38-7.61c1.62-1.43,2.22-3.59,3.73-5.12,2.57-2.6,1.68-4.7-1.12-6.42-7.17-14.8-4.9-24.62,7.24-36.84,1.21-1.22,3-1.95,4-3.32,1.31-1.88,3.58-3.84.67-6.51-2.29-2.11-2.56-5.21-2.76-8.19,1.42-1,1.11-2.11.2-3.25.3-5.27,3.36-8.08,8.28-9.15,5.32-1.15,12.19-8.49,12.69-13.92.17-1.81-.23-3.61,2.23-4a1,1,0,0,1,1-.07c4.43,3.33,9.16,3.44,14.11,1.4a6.82,6.82,0,0,1,4.35.09c1.36,7.4,6.22,11.21,13,13.84,4.36,1.7,8.63,4.37,8.54,10.29,0,1.93,1.68,2.54,3.24,3,3.27,1,.67-1.74,1.59-2.48,3.3-2.64,5.82-.25,8.56,1,7.7,7.48,6.1,22.49.88,26.46-5.83,4.42-11.69,8.78-17.55,13.15-7.59,5.65-15.46,11-22.73,17s-9.07,14.84-10.75,23.3c-2.92,14.71-5.92,29.53-7,44.44-.89,11.83-2.22,23.63-3.43,35.4-.8,7.76-1.19,15.77-3.43,23.46-1,3.43-.23,7.3-1.51,10.81-4.49,3.36-4.94,5.08-2.7,10.08C409,383.38,408,384.56,408.16,385.78Z"/><path class="cls-1" d="M314.14,415.86c3,3.87.09,8.32,1.29,12.52a88.69,88.69,0,0,0,5.62,15.46,69.69,69.69,0,0,0,28.06,15.8c15.5-1.32,25.6-10.91,34.06-22.68,6.83-9.52,12.26-19.89,17.56-30.33,1.42-2.81.7-6.83,4.52-8.32,1.37,5.25-2.12,9.4-3.51,13.92a90,90,0,0,1-18.28,33c-5.12,5.84-9.25,13-17.22,15.81a6.52,6.52,0,0,0-2.45-.1c.53.25,1.15.38,1.45,1-9,8.14-23.67,8.65-36.09,2.31-13.06-6.67-18.21-17.64-19.69-31.38-.72-6.64-1.51-13.19.64-19.69.46-.71.72-1.79,1.64-1.87,1.66-.14,1.13,1.33,1.32,2.21A5.52,5.52,0,0,0,314.14,415.86Z"/><path class="cls-1" d="M476.66,178.05a34,34,0,0,1-4.18-.29c-1.12-.21-2-1.86-3.32-.7-1.82,1.63,1.45,1.45,1.07,2.74-.31,1-.29,2.39-1.86,1.62-2.88-1.42-7.64-.35-6.54-6.68.59-3.42-3.94-5.38-6.81-7.23a23.71,23.71,0,0,0-7.1-3.17c-6.85-1.67-5.11-7.49-6.15-12,2-1.44,3.56.67,5.42.83,3.87.32,7.51,1.69,11.63,1.76,4.75.08,6.61,5.36,9.36,8.79C471.69,168.12,474.89,172.66,476.66,178.05Z"/><path class="cls-1" d="M314.14,415.86c-1.07-.26-1.91-.74-1.82-2,.25-3.6-1.48-.44-2.22-.65.22-9.7,2.86-18.93,5.79-28,.58-1.79.37-4.1,2.14-5.49,2.81.44,5.5-.18,2.56,4.63-3.31,5.41-3.9,12.26-4.74,18.65C315.28,407.24,313.42,411.39,314.14,415.86Z"/><path class="cls-1" d="M408.16,385.78c-1.63-.42,1.28-5.55-3.2-3.11-.16.08-1-.58-1.07-1-.1-.61,0-1.65.37-1.86,3.2-1.81.07-9.21,6.85-7.76C409.88,376.59,410.68,381.54,408.16,385.78Z"/><path class="cls-1" d="M437.42,152.27c-2.71,2-5.64,5-8.95,3-2.05-1.19-4.54-2.33-6.17-4.37C427.7,147.25,432.37,152,437.42,152.27Z"/><path class="cls-1" d="M389.77,236.13c5.78,1.79,6.12,2.57,2.27,7.08-1.41,1.65-2.43,3.89-4.88,4.46C387.87,243.79,390.38,240.31,389.77,236.13Z"/><path class="cls-1" d="M399.1,178c1.06.31,2.78,0,2.62,1.67-.14,1.36-1.55,1.61-2.82,1.58C399.29,180.21,397.35,179,399.1,178Z"/><path class="cls-1" d="M365.24,461.94l-4.13-.25c2.41-1.14,3.52-2.94,5.13-.62Z"/><path class="cls-1" d="M349.11,459.64c-11.58-1.32-21.15-6.2-28.06-15.8A243,243,0,0,1,349.11,459.64Z"/><path class="cls-1" d="M440.24,153.15a5.76,5.76,0,0,0,1.23,2.82c4.48,4.58,7.85,10,11.89,15a80.73,80.73,0,0,1,4.68,6.83c.5.77,1.15,1.35,2,.8s.18-1.22-.25-1.75c-3.59-4.43-6.46-9.41-10.44-13.57a33.13,33.13,0,0,1-3.4-4.74c-1-1.51.48-1.33,1.19-1.67,0-.62-.77-.77-.82-1.36a.49.49,0,0,0-.53-.37,3.3,3.3,0,0,1-2.54-1.37Z"/><path class="cls-1" d="M418.9,162.66c-1.18.58-1.36,1.75-.21,3.33,5.59,7.71,12.53,14.28,18.28,21.85a2.39,2.39,0,0,0,2.46,1Z"/><path class="cls-1" d="M446.4,177.36Z"/><path class="cls-1" d="M433.61,156.48c-1-2.11,3.15-2.44,3.81-3.75-4.86-1.55-10.56-3.87-15.39-1.29,2.78,1.12,4.82,3.57,7,5a20,20,0,0,1,6,5.14c3.7,4.91,7.38,11.09,11.35,15.78C443.13,169.83,437,164,433.61,156.48Z"/><path class="cls-1" d="M66.29,379.51c.11,4.34.15,8.7,2.42,12.63A168.62,168.62,0,0,0,92.26,438c6.12,8.41,14,14.6,24.07,17.72,2,.63,4.13,1.2,6.32.62,9.6-4.74,19.25-9.39,28.59-14.63,5.17-6.71,8.17-14.15,7.75-22.77a18.48,18.48,0,0,1,1-5.69c1.2-7.51-1.21-14.68-2.33-21.94-.58-3.76-.73-7.76-2.91-11.2-1.23-1.95,1.48-2,1.82-3.22-.49-6.59-3.92-12.23-6.24-18.15-7.71-19.66-17.4-38.47-27.64-56.84-9.5-17.05-17.69-34.72-27-51.82a68.42,68.42,0,0,1-3.09-7.73c-1.56-1.49-2.07-3.67-3.52-5.26-2.47-2.69-1.5-4.76,1.36-6.37,7.75-14.52,5.85-24.42-5.81-37.09-1.17-1.27-3-2.07-3.85-3.47-1.24-1.94-3.43-4-.42-6.54,2.37-2,2.76-5.11,3.07-8.08-1.38-1.05-1-2.14-.07-3.25-.1-5.28-3-8.21-7.92-9.46-5.27-1.36-11.86-9-12.14-14.4-.1-1.82.37-3.6-2.07-4.09a1,1,0,0,0-1-.11c-4.55,3.15-9.29,3.08-14.16.85A6.82,6.82,0,0,0,41.7,145c-1.64,7.35-6.64,11-13.48,13.34-4.42,1.53-8.79,4-8.93,9.95-.05,1.93-1.78,2.47-3.35,2.9-3.31.92-.6-1.77-1.49-2.54-3.2-2.77-5.82-.48-8.6.68-8,7.18-7,22.24-1.9,26.4q8.48,7,17,13.82c7.37,6,15,11.57,22.06,17.87s8.49,15.18,9.84,23.71c2.35,14.81,4.78,29.73,5.32,44.67.42,11.85,1.3,23.7,2.06,35.5.49,7.79.57,15.81,2.52,23.58.86,3.47-.06,7.3,1.09,10.86,4.36,3.53,4.74,5.27,2.31,10.17C65.59,377.07,66.47,378.29,66.29,379.51Z"/><path class="cls-1" d="M159.08,413.19c-3.18,3.75-.41,8.31-1.77,12.45a88.72,88.72,0,0,1-6.21,15.24,69.58,69.58,0,0,1-28.65,14.7c-15.44-1.91-25.16-11.88-33.16-24-6.46-9.77-11.48-20.35-16.37-31-1.32-2.85-.45-6.84-4.21-8.48-1.57,5.19,1.76,9.48,3,14a89.85,89.85,0,0,0,17,33.72c4.89,6,8.74,13.33,16.6,16.45a6.73,6.73,0,0,1,2.45,0c-.54.23-1.16.34-1.49.91,8.69,8.48,23.32,9.56,36,3.7,13.3-6.16,18.87-16.92,20.88-30.6,1-6.61,2-13.11.12-19.7-.43-.73-.65-1.82-1.57-1.93-1.65-.2-1.18,1.29-1.4,2.16A5.47,5.47,0,0,1,159.08,413.19Z"/><path class="cls-1" d="M5.85,169.29a34.32,34.32,0,0,0,4.19-.13c1.12-.16,2.1-1.78,3.35-.57,1.75,1.7-1.51,1.39-1.18,2.69.26,1,.19,2.4,1.79,1.69,2.93-1.3,7.65-.05,6.8-6.41-.46-3.45,4.14-5.23,7.08-7a23.83,23.83,0,0,1,7.21-2.9c6.92-1.4,5.4-7.28,6.61-11.73-2-1.51-3.58.54-5.44.62-3.89.18-7.58,1.4-11.69,1.31-4.75-.1-6.82,5.11-9.69,8.43C11.2,159.56,7.83,164,5.85,169.29Z"/><path class="cls-1" d="M159.08,413.19c1.08-.22,1.94-.67,1.9-2-.11-3.61,1.5-.38,2.24-.57.16-9.69-2.13-19-4.71-28.24-.5-1.81-.2-4.11-1.92-5.57-2.82.33-5.49-.38-2.74,4.53,3.1,5.54,3.43,12.4,4,18.82C158.27,404.53,160,408.75,159.08,413.19Z"/><path class="cls-1" d="M66.29,379.51c1.65-.36-1.07-5.6,3.32-3,.15.09,1-.54,1.11-.93.12-.6.07-1.65-.3-1.87-3.14-1.93.29-9.21-6.55-8C64.93,370.26,63.94,375.17,66.29,379.51Z"/><path class="cls-1" d="M46.05,145c2.63,2.08,5.45,5.18,8.83,3.38,2.09-1.11,4.63-2.15,6.34-4.12C56,140.4,51.11,144.94,46.05,145Z"/><path class="cls-1" d="M90.43,230.68c-5.84,1.56-6.2,2.33-2.53,7,1.33,1.7,2.27,4,4.69,4.65C92,238.4,89.66,234.83,90.43,230.68Z"/><path class="cls-1" d="M83.35,172.25c-1.06.27-2.78-.15-2.68,1.56.08,1.37,1.49,1.68,2.75,1.69C83.08,174.43,85.06,173.3,83.35,172.25Z"/><path class="cls-1" d="M106.24,457.26l4.14-.09c-2.36-1.23-3.4-3.07-5.1-.82Z"/><path class="cls-1" d="M122.45,455.58c11.62-.87,21.37-5.37,28.65-14.7A243.31,243.31,0,0,0,122.45,455.58Z"/><path class="cls-1" d="M43.21,145.81a5.93,5.93,0,0,1-1.35,2.78c-4.65,4.39-8.22,9.73-12.46,14.49a81.1,81.1,0,0,0-4.93,6.65c-.54.75-1.21,1.3-2,.72s-.13-1.23.32-1.74c3.77-4.29,6.82-9.16,11-13.15A34.41,34.41,0,0,0,37.3,151c1.07-1.47-.43-1.35-1.12-1.71,0-.62.79-.75.86-1.33a.52.52,0,0,1,.55-.36,3.25,3.25,0,0,0,2.59-1.27Z"/><path class="cls-1" d="M64.16,156.14c1.15.62,1.29,1.8.08,3.33C58.36,167,51.17,173.26,45.13,180.6a2.4,2.4,0,0,1-2.5.94Z"/><path class="cls-1" d="M35.6,167.68Z"/><path class="cls-1" d="M50.22,148.72c1.15-1.94-2.92-2.6-3.45-3.91,5.34-1.7,11.37-3.7,15.44.05,2.19,2-5.13,3-7.43,4.21a20.1,20.1,0,0,0-6.45,4.43c-4.13,4.39-8.36,10-12.73,14.18C39.54,160.74,46.12,155.64,50.22,148.72Z"/><path class="cls-4" d="M222,189s19.5,7.49,43.13,0C265.1,189,242.64,228.74,222,189Z"/></g></g></svg>