<svg xmlns="http://www.w3.org/2000/svg" viewBox="0 0 71.22 141.82"><defs><style>.cls-1{fill:#f26d58;}.cls-2{fill:#e4564f;}.cls-3{fill:#d19a75;}.cls-4{fill:#c8885b;}.cls-5{fill:#cd8f67;}.cls-6{fill:#c47e4e;}.cls-7{fill:#fcd3b3;}.cls-8{fill:#231f20;}.cls-9{fill:#ac4936;}.cls-10{fill:#e9a23f;}.cls-11{fill:#9998ba;}.cls-12{fill:#fbaf45;}.cls-13{fill:#cfcfce;}.cls-14{fill:#fff;}.cls-15{fill:none;stroke:#c9c9c9;stroke-miterlimit:10;stroke-width:0.1px;}.cls-16{fill:#7676b8;}.cls-17{fill:#5a5faa;}.cls-18{fill:#2d3156;}</style></defs><title>Asset 20drawing-harry</title><g id="Layer_2" data-name="Layer 2"><g id="Layer_1-2" data-name="Layer 1"><path class="cls-1" d="M5.66,102.75c-1.36-.07-2.26-.72-2.27-1.67s.06-1.86,0-2.78.42-1.76,1.83-2.14h27c1.21.17,1.84.58,2,1.47a12.41,12.41,0,0,1,0,3.6c-.11.85-.8,1.4-2,1.61-.23,0-.45,0-.68,0H6.53A1.71,1.71,0,0,1,5.66,102.75Z"/><path class="cls-2" d="M32.26,102.74c1.38-.35,1.81-1.1,1.81-2s0-1.74,0-2.61a1.78,1.78,0,0,0-1.27-1.73c-.2-.08-.43-.13-.65-.2h2.49a4.45,4.45,0,0,1,1.18.57,1.46,1.46,0,0,1,.56,1.13c0,1.07,0,2.14,0,3.2s-.86,1.61-2.28,1.7A3.45,3.45,0,0,1,32.26,102.74Z"/><path class="cls-3" d="M2.49,136.75c-.41,0-.83,0-1.24,0-.83,0-1.33-.4-1.24-1,.15-.93.32-1.86.48-2.79.29-1.65.58-3.29.86-4.94l1-5.61c.31-1.83.62-3.67.94-5.5s.66-3.74,1-5.61.63-3.69,1-5.53c.1-.6.22-1.2.32-1.8a1.41,1.41,0,0,0,1.1.29H30.29c1.77,0,2.07.17,2.28,1.39q1.24,7.16,2.48,14.32.89,5,1.75,10.07c.36,2,.72,4.07,1.05,6.1,0,.19.12.39,0,.58-.49,0-1,0-1.47,0-.75,0-1.16-.24-1.26-.76-.28-1.45-.52-2.9-.78-4.35q-.49-2.84-1-5.65c-.13-.74-.26-1.47-.37-2.2,0-.19-.08-.29-.39-.29H22.38a1,1,0,0,0-.17,0c-.06,0-.05-.09,0-.14a2.24,2.24,0,0,1,.93-.09H31.8c.27,0,.63.09.77-.14s0-.49-.11-.73-.23-.12-.38-.13-.45,0-.68,0H8.22a3.13,3.13,0,0,1-1.06-.08,2.29,2.29,0,0,1,.34-2.09,1.66,1.66,0,0,1,.55-.06c3.15,0,6.31,0,9.46,0,1.55,0,3.1,0,4.65,0,3.11.06,6.22,0,9.34,0,.53,0,.6-.08.54-.47-.33-2-.69-4-1-5.94s-.66-3.74-1-5.62c-.13-.79-.51-1.05-1.63-1.05H23.15c-.62,0-.67,0-.68.47,0,.23,0,.45,0,.68s0,.32-.24.41a.28.28,0,0,1-.17-.17,4.34,4.34,0,0,1,0-.95c0-.25-.14-.36-.5-.36H18.24c-.4,0-.52.13-.53.39a1.7,1.7,0,0,1-.09.86.15.15,0,0,1-.16.06c-.33-.26-.18-.58-.2-.87,0-.48-.05-.52-.75-.52-2,0-4,0-6,0h-.11c-2-.13-2.66.19-2.88,1.53-.61,3.81-1.31,7.61-2,11.41s-1.29,7.42-1.93,11.13c-.31,1.75-.6,3.51-.92,5.26C2.64,136.49,2.65,136.64,2.49,136.75Z"/><path class="cls-4" d="M37.81,136.75a13.77,13.77,0,0,1-.34-1.79c-.19-1-.36-2-.53-3s-.32-1.93-.49-2.89-.36-2-.53-3-.32-2-.49-3-.33-1.9-.5-2.85-.34-2-.52-3l-.51-2.93-.39-2.3c-.17-1-.35-2-.52-2.93-.13-.78-.25-1.56-.39-2.34-.1-.59-.22-1.17-.34-1.76-.08-.42-.52-.58-1.06-.65a4.34,4.34,0,0,0-.51,0H6.2c-.45,0-.74,0-.67-.42l.14-.86c0-.28.17-.36.59-.36H33.48c.23,0,.51-.07.57.19.43,2.44.85,4.89,1.27,7.33.4,2.28.82,4.55,1.21,6.82.36,2.08.7,4.16,1.06,6.24s.73,4.13,1.1,6.19.68,4,1,6c.16.88-.29,1.32-1.63,1.24Z"/><path class="cls-4" d="M2.49,136.75a17.79,17.79,0,0,1,.39-2.5c.15-1,.34-2,.51-3.05l.51-2.85.51-2.92.51-2.93c.13-.77.26-1.54.4-2.31s.25-1.51.37-2.26c.18-1,.35-2.06.53-3.09s.34-1.87.5-2.81.35-2,.52-3a9.51,9.51,0,0,1,.26-1.29,1.34,1.34,0,0,1,1.13-.8,5.07,5.07,0,0,1,1.78,0c-1,.76-.77,1.73-.94,2.62-.6,3.22-1.11,6.44-1.69,9.66a1.67,1.67,0,0,1-.32,1,9.54,9.54,0,0,0-.33,2c.19.17.1.36.08.54-.09.61-.09.61.81.61h8.6a2.38,2.38,0,0,1,.88.08c.07,0,.08.08,0,.13l-2.83,0c-2.43,0-4.87,0-7.3,0-.45,0-.58.11-.63.4-.36,2.14-.74,4.29-1.1,6.43-.32,1.85-.63,3.69-.94,5.54-.1.61-.53.89-1.4.89Z"/><path class="cls-4" d="M17.54,123.53v-.09a1.06,1.06,0,0,1,.64-.12h3.38a1,1,0,0,1,.63.12l0,.11q0,6.09,0,12.2c0,.75-.4,1-1.48,1-.64,0-1.28,0-1.92,0-.84,0-1.29-.31-1.29-.91Q17.53,129.7,17.54,123.53Z"/><path class="cls-5" d="M34.05,103a.73.73,0,0,0-.59-.16q-13.58,0-27.16,0c-.39,0-.53.1-.63.32,0-.13,0-.26,0-.39h26.6l1.83,0C34.08,102.84,34.06,102.91,34.05,103Z"/><path class="cls-4" d="M17.51,120.18c0-1.5,0-3,0-4.51v-7.29h0a1,1,0,0,1,.58-.12h3.43a1,1,0,0,1,.57.12l0,.18q0,5.78,0,11.55a.78.78,0,0,1-.53.09Z"/><path class="cls-6" d="M22.19,123.44H7.49c-.45,0-.69,0-.51-.41a2.78,2.78,0,0,0,.15-.86h25c.4,0,.67,0,.59.38,0,0,0,0,0,.08.12.81.12.81-1,.81Z"/><path class="cls-6" d="M22.16,108.37H17.58c0-.38,0-.77,0-1.15,0-.2.09-.28.39-.28,1.28,0,2.57,0,3.85,0,.3,0,.4.08.39.28C22.17,107.6,22.17,108,22.16,108.37Z"/><rect class="cls-7" x="16.3" y="27.96" width="9.59" height="11.42" transform="translate(42.19 67.33) rotate(-180)"/><ellipse class="cls-7" cx="20.31" cy="17.82" rx="11.26" ry="13.25"/><path class="cls-8" d="M15.64,20.67a3.64,3.64,0,0,0-.09-1.05.93.93,0,0,0-.56-.71c-.28-.08-.53.19-.64.51a3.91,3.91,0,0,0-.19,1,2.55,2.55,0,0,1,0-1.1,1.12,1.12,0,0,1,.28-.51.66.66,0,0,1,.6-.18,1.1,1.1,0,0,1,.69.91A2.48,2.48,0,0,1,15.64,20.67Z"/><path class="cls-8" d="M24.39,20.25c-.42,2.26,1.66,2.72,1.49.22v.17c.17-2.5-1.91-2-1.49.21"/><path class="cls-8" d="M14.17,20.07c-.42,2.26,1.66,2.72,1.48.21v.18c.18-2.51-1.9-2.05-1.48.21"/><path class="cls-8" d="M13.29,17.08A6,6,0,0,1,15,16.44a3.36,3.36,0,0,1,.9-.1,2.25,2.25,0,0,1,.87.26v0a9.09,9.09,0,0,0-1.73,0,7.15,7.15,0,0,0-1.68.48Z"/><path class="cls-8" d="M27.19,17.25a9.51,9.51,0,0,0-2-.55,6.55,6.55,0,0,0-1,0,1.38,1.38,0,0,0-.89.34l0,0a1.11,1.11,0,0,1,.88-.56,2.9,2.9,0,0,1,1.06.08,8.36,8.36,0,0,1,1.94.71Z"/><path class="cls-8" d="M19.87,27.49a7.23,7.23,0,0,1-2.45-.2,4.35,4.35,0,0,1-2.16-1.16,7,7,0,0,0,2.22.92c.39.11.79.18,1.18.25S19.46,27.44,19.87,27.49Z"/><path class="cls-9" d="M25.89,29.33A6.75,6.75,0,0,1,23.84,31a7.51,7.51,0,0,1-2.55.84,6.21,6.21,0,0,1-2.71-.21,5.44,5.44,0,0,1-2.28-1.35,13.4,13.4,0,0,0,2.45.59,8.77,8.77,0,0,0,2.4,0A17.29,17.29,0,0,0,25.89,29.33Z"/><path d="M32,21.28a.63.63,0,0,1,.35.33,2.55,2.55,0,0,1,.23,1.05v.22a.75.75,0,0,0,.44-.27,2.47,2.47,0,0,0,.47-1.12,12.43,12.43,0,0,0,.23-3.22c0-.73-.09-1.45-.13-2.18v-.2a2.47,2.47,0,0,1,1.79.42.33.33,0,0,0,0-.37,2.24,2.24,0,0,0-.44-.43,10.07,10.07,0,0,0-.91-.57,1.55,1.55,0,0,1,1.13-.14c-.05-.11-.06-.21-.12-.25a4.25,4.25,0,0,0-.58-.35A5.07,5.07,0,0,0,34,14a1.74,1.74,0,0,1,1.26-.36.48.48,0,0,0-.23-.32,1.62,1.62,0,0,0-.8-.24c-.12,0-.16,0-.19-.17-.16-1-.35-1.94-.51-2.92a8.36,8.36,0,0,1,0-1,.54.54,0,0,1,.1-.22.68.68,0,0,1,.21.1l.92,1.15.22.31c0-.23,0-.41,0-.59a6,6,0,0,0-.6-2.38,4.89,4.89,0,0,0-2.19-2.1C31.58,5,31,4.79,30.5,4.56a5.07,5.07,0,0,1-1.34-.8,7.81,7.81,0,0,0-2-1.13c-.38-.16-.76-.34-1.14-.48a4.38,4.38,0,0,1-1.44-1A4.73,4.73,0,0,0,23,.13,3.65,3.65,0,0,0,22.44,0V.05c.16.14.34.27.49.43s.52.56.78.85a.76.76,0,0,1,.11.22c0,.11,0,.17-.12.17a1.59,1.59,0,0,1-.3-.06A18,18,0,0,0,20.67,1a14.31,14.31,0,0,0-3.2-.19,9.59,9.59,0,0,0-3.08.66,9.33,9.33,0,0,0-2.11,1.29,16.58,16.58,0,0,0-3.83,4A11.16,11.16,0,0,0,6.71,11a13.24,13.24,0,0,0-.24,2.74A4.41,4.41,0,0,0,7,15.89a7.56,7.56,0,0,0,.57.79.57.57,0,0,1,.12.67,5.92,5.92,0,0,0,.45,5,10.62,10.62,0,0,0,2.16,2.18c.06.05.32.18.41.25,0-.13-.13-.28-.13-.37,0-1.16-.52-2.3-.46-3.45a10,10,0,0,1,.49-2.87,2.42,2.42,0,0,1,.47-.88,1.51,1.51,0,0,1,.23-.21q.21-.13.27.09c.07.26.1.53.16.78a8.36,8.36,0,0,0,.27,1,1.17,1.17,0,0,0,.25.36A12,12,0,0,1,13,15a3.36,3.36,0,0,0,.24,2,6,6,0,0,1,.82-2.59c0,.35-.08.71-.08,1.07a1.11,1.11,0,0,0,.4,1,6.83,6.83,0,0,1,.92-2.85,10.88,10.88,0,0,1,.12,2.13l.08-.13a16.63,16.63,0,0,1,2.88-3.49,7.11,7.11,0,0,1,.72-.5.29.29,0,0,1,.13-.05.45.45,0,0,1,.62.53,1.75,1.75,0,0,1-.39.85c-.47.59-.94,1.16-1.43,1.73a17.6,17.6,0,0,0-1.55,1.9,2.61,2.61,0,0,0-.42.95c0,.05,0,.1,0,.18l.13-.12c1.21-1.11,2.41-2.24,3.64-3.33,1.06-.94,2.15-1.84,3.23-2.75.29-.24.61-.46.92-.68a.43.43,0,0,1,.17,0,.53.53,0,0,1,0,.18c-.16.33-.32.67-.51,1a20.89,20.89,0,0,1-3.07,3.88c-.19.19-.4.36-.6.57.17-.05.35-.09.52-.15a6.64,6.64,0,0,0,1.89-1.1c.39-.31.76-.63,1.12-.94a16.71,16.71,0,0,1-2.21,3.15.6.6,0,0,0,.49,0,2.43,2.43,0,0,0,.92-.56,14.1,14.1,0,0,0,2.13-2.37l.12-.16c0,.84-.18,1.94-1.93,3.22a.88.88,0,0,0,.53,0,1.68,1.68,0,0,0,.77-.4,6.56,6.56,0,0,0,1.31-1.57c.36-.56.7-1.13,1.06-1.69a1.93,1.93,0,0,1,.22-.28c.06-.07.11,0,.13,0a5.16,5.16,0,0,1,.11,1.71,5.65,5.65,0,0,1-1.86,3.47l-.75.69a2.23,2.23,0,0,0,.79-.18,7,7,0,0,0,1.79-1.14A19.6,19.6,0,0,0,29.32,16l.16-.19c.06.38.13.71.17,1a4.9,4.9,0,0,1,0,1.53,1.63,1.63,0,0,1-.84,1.25l.23,0a2.34,2.34,0,0,1,1.82,1.6,5,5,0,0,1,.33,1.71A7.06,7.06,0,0,1,31,24.87a.21.21,0,0,0,.25-.13,3,3,0,0,0,.28-.63c.16-.68.29-1.36.42-2.05C32,21.81,32,21.56,32,21.28Z"/><path class="cls-10" d="M60.19,121.47s5.26-27.19,11-31.88c1-9.44-11.49-8.37-25.91-9.44a75.62,75.62,0,0,1-7.06,4.25c-2.81,1.38,5.65,9.13,5.65,9.13s11.41-.94,12.66-1.63A47.76,47.76,0,0,0,51.63,110c-.51,7.25-.64,12.5-.68,15.12"/><path class="cls-11" d="M51,125.15c0,1.25,0,1.9,0,1.9l3.52,5.45s13.78,1.9,16.41.47c0,0,1.81-3.82-3.69-4.38s-7-7.12-7-7.12Z"/><path class="cls-12" d="M50.5,125.8S47.31,122,45.56,108s-1.75-24.25-7.25-23.31-5.87,1.93-12.81,2.37c0,0-5.9-2.69-10.67-1V96s12,1.66,16,1c0,0,7,23.83,11.5,29.66"/><path class="cls-11" d="M42.33,126.63V134s7.17,7.5,11.5,7.83,4.34-4.5,4.34-4.5-7.34-9-7.67-11.5Z"/><path class="cls-13" d="M45.17,49.27c-.89,3.95-15.38-2.84-16.77-3C25.81,54.61,35,58,41,59.34c.12-.14,0,.66,0,.66a3.21,3.21,0,0,0,4.67-.79c-2.66-4.37-.52-9.94-.52-9.94a3.4,3.4,0,0,0-2.38.58s-3,2.91-1.77,9.49"/><path class="cls-14" d="M31.19,35.8S33.43,33.47,35.47,62c0,0,6,12.5,6,15.5s3.83,2.33,3.83,2.33-5,6.83-19.44,6.67c0,0-6.47-1.88-11.22-.5l.58,13.7S7.13,95.3,3.92,94.84C3.92,94.84,8.17,77.3,7,63c0,0-5.62-10.5-5.25-16.63,0,0,.67-6,3.75-8"/><path class="cls-11" d="M13.3,28.29s3,1.53,3.74,2.78S18,36,18,36s6.64,2.82,7.89-4.55A11.32,11.32,0,0,0,27.25,31c.69-.25,3.94,3.87,3.94,3.87s-2.06,7.88-10.25,7.38c0,0,3,23.5,2.5,25S17.25,59.78,15,48.59c0,0,.81-6.63-9.5-10.25,0,0,2.25-5.44,5.88-6.62C11.38,31.72,12.86,29.28,13.3,28.29Z"/><path class="cls-15" d="M7,63c.38,5.25,14.6,14.8,14.67,15.14a6.32,6.32,0,0,1,0,.77c3.21,2.34,5.41-.91,5.41-.91-3.08-5.09-.6-11.55-.6-11.55a3.92,3.92,0,0,0-2.76.67s-3.51,3.38-2,11"/><path class="cls-16" d="M50.69,40.78s-10.87-5.2-12.69,8S50.75,62.22,52.13,60.4c0,0,6.43-.81,7.56-9.12s-5-9.38-5-9.38-3.93-.15-4.88,3.44c0,0-2.62.69-1.93-1.37C47.88,44,47.19,41.72,50.69,40.78Z"/><circle class="cls-17" cx="55.28" cy="47.37" r="1.72"/><circle class="cls-17" cx="55.61" cy="52.83" r="1.55"/><circle class="cls-18" cx="44.89" cy="47.59" r="0.64"/><path class="cls-7" d="M26.5,67.44S38,63.3,40.58,56.3V50.38a8.2,8.2,0,0,0,2.84-4.66s2.16-.84.41,3.25c0,0-.16,1.5,2.42-2.3,0,0,1.88-.37,2.75,2.67s0,7.79,0,7.79a12.56,12.56,0,0,1-4.42,3.34S31.83,77,27,78.59C27,78.59,23.71,73,26.5,67.44Z"/><path class="cls-14" d="M55,141c-4.55,0-12-6.92-12.4-7.25l-.27-.25v-1l.28.25c.08.08,8.61,7.94,12.73,7.49a3.74,3.74,0,0,0,1.77-.56l.32-.22.1.44-.22.31a3.37,3.37,0,0,1-1.89.77A2.82,2.82,0,0,1,55,141Z"/><path class="cls-14" d="M71.13,132s-16.44-.28-17.79-1.47v.73c4,1.26,9.47,1.59,17.79,1.51Z"/></g></g></svg>