<svg xmlns="http://www.w3.org/2000/svg" viewBox="0 0 131.69 99.37"><defs><style>.cls-1{fill:#fcd3b3;}.cls-2{fill:#83bbbe;}.cls-3{fill:#1e194d;}.cls-4{fill:#fff;}.cls-5{fill:#fbaf45;}.cls-6{fill:#231f20;}.cls-7{fill:#ac4936;}</style></defs><title>Asset 19meditating-harry</title><g id="Layer_2" data-name="Layer 2"><g id="Layer_1-2" data-name="Layer 1"><path class="cls-1" d="M127.1,38.28s-1-5.13-2.33-5.5-5.62,1.71-11,5.29S97.35,52.49,97.35,52.49A34.87,34.87,0,0,0,72.69,30.61a33.09,33.09,0,0,0-14.59,0S38.35,38.36,33.85,51.86c0,0-21.75-20.25-26.25-19.5a6.81,6.81,0,0,0-3.75,4.75,10.41,10.41,0,0,1-3.5-2c-.86-.79-1.43,5.38,14.5,7.5,0,0,14,22,18.5,20.5s4.75,1.75,15.25-12l34.17.58S91.1,64,96.6,63.61,113,47.44,115.69,43.11c0,0,13.71,2.46,16-7.5C131.69,35.61,132.06,32.86,127.1,38.28Zm-118-.36H7.67l-1-1.06.75-3.31s3.31,1.37,3.31,2.06S9.07,37.92,9.07,37.92Zm114.66,1h-1.41s-1.65-1.62-1.65-2.31S124,34.55,124,34.55l.75,3.31Z"/><rect class="cls-1" x="61.98" y="24.74" width="7.44" height="10.1"/><path class="cls-2" d="M50.35,69c-.79-1-.92-2.58-1.1-3.75-.28-2-.41-4-.5-6q-.2-4-.15-7.95a59.19,59.19,0,0,1-6,7.37L37,52.26l-1.51-1.73c-.15-.17-.61-.53-.66-.75s.3-.89.41-1.16c.24-.6.51-1.18.81-1.76a22.71,22.71,0,0,1,1.82-2.93c4.5-6.11,11.61-10.2,18.64-12.76C64,28.44,72.69,29.83,79.82,33.1A31.83,31.83,0,0,1,95.59,48.22a6.46,6.46,0,0,1,.76,1.89c0,.44-.24.54-.61.91l-7,7-.61.6a69,69,0,0,1-5.35-6.71L81.52,66.66c0,.38.09,1.65-.16,2s-1.22.28-1.5.34A81.26,81.26,0,0,1,69,70.39,59.61,59.61,0,0,1,50.35,69Z"/><path class="cls-3" d="M80.59,86.68,67.84,91.79,63.7,84.16l-5.72,3-.21.09L53.72,89c-3.88-2.12-10.24-1.06-10.24-1.06h0a14.15,14.15,0,0,0-4.93,1,5.48,5.48,0,0,0,2.24,10.43c4,.11,9.57-.71,17.3-3.76l7.75-3.25,5.25,2.5v1s23.59,6.08,26.5.83c0,0,.71-2.29-1.47-5a9.29,9.29,0,0,0-5.54-3.18l-3.07-.57-.46.25A25.43,25.43,0,0,1,80.59,86.68Z"/><path class="cls-1" d="M64.46,83.66l4.16,7.59-8.94,3.68-.41-.83s-6.34-1-1.21-5.83L58,87.11Z"/><path class="cls-1" d="M65.81,92.41l5.28,2.44.16-.94s3.09,1,3.5-1.69S74.09,89,74.09,89Z"/><path class="cls-4" d="M49.74,87.69c-.89.08-1.79.14-2.68.24l-1.32.21a7.25,7.25,0,0,0-1.31.27,11,11,0,0,0-4.79,2.21,5.78,5.78,0,0,0-.92.93,3.19,3.19,0,0,0-.35.55,2.73,2.73,0,0,0-.3.59,4.54,4.54,0,0,0-.2,2.58,6.87,6.87,0,0,0,3.19,4.1,6.59,6.59,0,0,1-3.35-4.06,4.78,4.78,0,0,1,.16-2.7,3.5,3.5,0,0,1,.31-.61,2.68,2.68,0,0,1,.36-.58,5.51,5.51,0,0,1,.94-1,11.23,11.23,0,0,1,4.91-2.18A7.6,7.6,0,0,1,45.72,88l1.33-.19C48,87.75,48.85,87.73,49.74,87.69Z"/><path class="cls-4" d="M44.81,91.39a11.91,11.91,0,0,1,.72,2.08,5.85,5.85,0,0,1,.2,2.2,7.85,7.85,0,0,0-.18-1.08l-.26-1.06C45.13,92.82,44.94,92.12,44.81,91.39Z"/><path class="cls-4" d="M47.32,91a11,11,0,0,1,.83,2,5.15,5.15,0,0,1,.25,2.2,6.3,6.3,0,0,0-.19-1.07c-.1-.36-.18-.71-.3-1.06C47.72,92.37,47.49,91.67,47.32,91Z"/><path class="cls-4" d="M49.74,90.53a6.57,6.57,0,0,1,.84,2,5.73,5.73,0,0,1,.12,2.22A19.68,19.68,0,0,0,49.74,90.53Z"/><path class="cls-4" d="M79.92,87a36.32,36.32,0,0,1,5.76,1,28.5,28.5,0,0,1,5.51,2,12.23,12.23,0,0,1,4.57,3.62,3.48,3.48,0,0,1,.62,2.82,3.79,3.79,0,0,1-1.94,2.11,3.69,3.69,0,0,0,1.82-2.14,3.3,3.3,0,0,0-.64-2.7,12.1,12.1,0,0,0-4.54-3.49,28.48,28.48,0,0,0-5.44-2A52.64,52.64,0,0,0,79.92,87Z"/><path class="cls-4" d="M81.53,96.07c.06-.74.2-1.45.3-2.17L82,92.82a7.89,7.89,0,0,0,.1-1.09,5.81,5.81,0,0,1,0,2.2A12,12,0,0,1,81.53,96.07Z"/><path class="cls-4" d="M84.06,96.3c.11-.73.29-1.44.42-2.16.09-.35.14-.71.21-1.07a5.67,5.67,0,0,0,.1-1.09,5.15,5.15,0,0,1-.06,2.21A11,11,0,0,1,84.06,96.3Z"/><path class="cls-4" d="M86.51,96.53a19.92,19.92,0,0,0,.61-4.34,5.92,5.92,0,0,1,.06,2.22A7.18,7.18,0,0,1,86.51,96.53Z"/><path class="cls-5" d="M50.39,69c-1.93-.91-3.9-1.74-5.89-2.53a55.21,55.21,0,0,0-10.24-3.34C32,62.66,29,61.82,26.85,63a5.92,5.92,0,0,0-2.39,2.49c-1.53,3-.39,6.41,1.32,9C29.48,80.14,35.87,84,41.73,87a7.45,7.45,0,0,0,2.54,1.19,10.16,10.16,0,0,0,1.43-.24,16.46,16.46,0,0,1,5.6.16,9.5,9.5,0,0,1,1.38.41,4.88,4.88,0,0,0,1.09.46,4.57,4.57,0,0,0,1.28-.57L58,87.11v.75l5.72-3.7,2,3.73,1.4,2.58c.11.21.49,1.23.72,1.31s.59-.22.72-.27l2-.8,5.64-2.26a26.7,26.7,0,0,1,4.14-1.66c.37-.08.43,0,.85.12A29.24,29.24,0,0,0,85,88a4.73,4.73,0,0,0,2.2.17,5.55,5.55,0,0,0,.93-.5q1.94-1.07,3.82-2.24a60,60,0,0,0,10.56-8c2.58-2.57,5.57-6.14,4.82-10.06a6.3,6.3,0,0,0-5-5.23c-1.73-.37-3.25.14-5,.5A17.24,17.24,0,0,0,92,64.29c-1.53.87-2.65,2.19-4.1,3.15a8.59,8.59,0,0,1-4,1.38c-1.06.09-2.07-.29-3.08-.06-1.71.37-3.43.66-5.16.91A72.7,72.7,0,0,1,56,70,47.31,47.31,0,0,1,50.44,69"/><polygon class="cls-6" points="44.02 67.78 54.84 75.03 65.6 82.36 54.78 75.11 44.02 67.78"/><polygon class="cls-6" points="85.66 68.78 74.9 76.11 64.08 83.36 74.84 76.03 85.66 68.78"/><path class="cls-6" d="M32.1,77.94c3.6,1.87,7.25,3.64,11,5.27s7.46,3.19,11.3,4.48C50.51,86.43,46.73,84.94,43,83.3S35.69,79.84,32.1,77.94Z"/><path class="cls-6" d="M97.7,76.88,87.42,82.93a75.69,75.69,0,0,1-10.67,5.3,75.63,75.63,0,0,0,10.62-5.39Z"/><ellipse class="cls-1" cx="65.86" cy="15.77" rx="9.97" ry="11.73"/><path class="cls-6" d="M70,18.3a2,2,0,0,1-.1-1,1,1,0,0,1,.62-.82.71.71,0,0,1,.79.62,2.16,2.16,0,0,1,0,1,3.41,3.41,0,0,0-.18-.92c-.1-.28-.32-.51-.55-.44a.83.83,0,0,0-.5.62A3.14,3.14,0,0,0,70,18.3Z"/><path class="cls-6" d="M62.25,18.46a3.54,3.54,0,0,0-.09-.93.84.84,0,0,0-.49-.62c-.23-.07-.46.17-.55.45a3.27,3.27,0,0,0-.18.91,2.26,2.26,0,0,1,0-1,.73.73,0,0,1,.8-.63,1,1,0,0,1,.62.82A2.27,2.27,0,0,1,62.25,18.46Z"/><path class="cls-6" d="M72.07,15.14a6.6,6.6,0,0,0-1.49-.41,11.15,11.15,0,0,0-1.53,0v0a1.93,1.93,0,0,1,1.56-.16,5.07,5.07,0,0,1,1.47.58Z"/><path class="cls-6" d="M59.76,15.24a7.33,7.33,0,0,1,1.71-.64,2.69,2.69,0,0,1,.94-.08,1,1,0,0,1,.78.52h0a1.21,1.21,0,0,0-.79-.28,5.1,5.1,0,0,0-.87,0,9,9,0,0,0-1.74.48Z"/><path class="cls-6" d="M66.25,24.33c.36,0,.72-.11,1.07-.18a9.81,9.81,0,0,0,1.05-.22,6.43,6.43,0,0,0,2-.8,3.72,3.72,0,0,1-1.9,1A6.42,6.42,0,0,1,66.25,24.33Z"/><path class="cls-7" d="M62,26.68a11.71,11.71,0,0,0,1.87.57,7.52,7.52,0,0,0,1.82.2,8.13,8.13,0,0,0,1.83-.19c.63-.11,1.24-.31,1.92-.47A4.88,4.88,0,0,1,67.74,28a5,5,0,0,1-2.07.44A4.93,4.93,0,0,1,63.59,28,3.9,3.9,0,0,1,62,26.68Z"/><path d="M55.48,18.83a.53.53,0,0,0-.3.29,2.19,2.19,0,0,0-.21.94v.19a.64.64,0,0,1-.39-.24,2.24,2.24,0,0,1-.42-1,11.34,11.34,0,0,1-.2-2.85c0-.64.08-1.29.12-1.93v-.17a2.18,2.18,0,0,0-1.59.36.27.27,0,0,1,0-.32,2.81,2.81,0,0,1,.38-.39c.26-.18.53-.33.81-.5a1.35,1.35,0,0,0-1-.12c0-.1.06-.19.11-.22a3.3,3.3,0,0,1,.51-.31,4.15,4.15,0,0,1,.46-.15,1.52,1.52,0,0,0-1.12-.32.44.44,0,0,1,.2-.29,1.5,1.5,0,0,1,.71-.21c.1,0,.15,0,.16-.15.15-.86.32-1.72.46-2.58a6.56,6.56,0,0,0,0-.89.52.52,0,0,0-.08-.19c-.06,0-.15,0-.19.09l-.82,1c-.06.07-.11.16-.19.27V8.64a5.3,5.3,0,0,1,.53-2.1,4.36,4.36,0,0,1,1.94-1.86c.47-.23.95-.44,1.43-.65A4.28,4.28,0,0,0,58,3.33a6.41,6.41,0,0,1,1.74-1c.33-.15.67-.3,1-.43a3.73,3.73,0,0,0,1.27-.85A4.27,4.27,0,0,1,63.5.11c.15,0,.32-.07.48-.11V0l-.44.38-.68.75a.78.78,0,0,0-.11.2c0,.1,0,.16.11.15a.86.86,0,0,0,.27-.05,15.6,15.6,0,0,1,2.4-.6A12.29,12.29,0,0,1,68.38.7a8.43,8.43,0,0,1,2.72.58A8.28,8.28,0,0,1,73,2.42,14.66,14.66,0,0,1,76.36,6,9.83,9.83,0,0,1,77.9,9.71a11.74,11.74,0,0,1,.21,2.43,3.91,3.91,0,0,1-.47,1.93,5.49,5.49,0,0,1-.5.69.53.53,0,0,0-.11.6,5.22,5.22,0,0,1-.39,4.38,9.53,9.53,0,0,1-1.92,1.94s-.28.15-.36.22c0-.11.12-.25.12-.33,0-1,.45-2,.41-3.06A9.53,9.53,0,0,0,74.45,16a2.19,2.19,0,0,0-.42-.78,1.71,1.71,0,0,0-.2-.18c-.12-.08-.21-.06-.24.08s-.08.47-.14.69-.14.58-.23.87A1.12,1.12,0,0,1,73,17a10.61,10.61,0,0,0-.69-3.71A3,3,0,0,1,72.09,15a5.41,5.41,0,0,0-.73-2.3c0,.32.07.63.07.95a1,1,0,0,1-.35.86A6.33,6.33,0,0,0,70.27,12a9.17,9.17,0,0,0-.11,1.88l-.08-.11a14.79,14.79,0,0,0-2.54-3.09,5.58,5.58,0,0,0-.64-.44l-.11,0a.4.4,0,0,0-.55.47,1.6,1.6,0,0,0,.34.76c.41.51.84,1,1.27,1.53a15.92,15.92,0,0,1,1.37,1.68,2.35,2.35,0,0,1,.37.84s0,.09,0,.16l-.11-.11c-1.08-1-2.14-2-3.23-2.95-.93-.83-1.9-1.63-2.86-2.43-.26-.22-.53-.4-.81-.6a.37.37,0,0,0-.15,0,.42.42,0,0,0,0,.16c.14.29.28.59.45.87A18.39,18.39,0,0,0,65.63,14c.17.16.35.31.53.5l-.47-.13a6,6,0,0,1-1.67-1c-.34-.27-.67-.56-1-.83a14.57,14.57,0,0,0,2,2.79.54.54,0,0,1-.43,0,2.16,2.16,0,0,1-.82-.5,12.12,12.12,0,0,1-1.88-2.1,1.71,1.71,0,0,1-.11-.14c0,.75.16,1.72,1.71,2.85a.84.84,0,0,1-.47,0,1.5,1.5,0,0,1-.68-.36,5.51,5.51,0,0,1-1.16-1.39c-.32-.49-.63-1-.94-1.49A2.35,2.35,0,0,0,60,12c-.06-.06-.11,0-.12,0a4.51,4.51,0,0,0-.1,1.51,5,5,0,0,0,1.65,3.08l.66.6a1.8,1.8,0,0,1-.7-.16,5.83,5.83,0,0,1-1.58-1,16.07,16.07,0,0,1-1.94-1.93L57.75,14c-.06.33-.12.63-.15.92a4.14,4.14,0,0,0,0,1.36,1.45,1.45,0,0,0,.74,1.1l-.2,0a2.09,2.09,0,0,0-1.62,1.41,4.56,4.56,0,0,0-.29,1.52A6.31,6.31,0,0,0,56.41,22a.21.21,0,0,1-.22-.12,2.81,2.81,0,0,1-.25-.56c-.14-.6-.25-1.21-.37-1.81C55.53,19.31,55.51,19.08,55.48,18.83Z"/></g></g></svg>