<svg xmlns="http://www.w3.org/2000/svg" viewBox="0 0 206.81 132.25"><defs><style>.cls-1{fill:#fcd3b3;}.cls-2{fill:#83bbbe;}.cls-3{fill:#fff200;}.cls-4{fill:none;stroke:#6f9ea1;stroke-miterlimit:10;stroke-width:0.25px;}.cls-5{fill:#fffffd;}.cls-6{fill:#e9a23f;}.cls-7{fill:#fbaf45;}.cls-8{fill:#1a2640;}.cls-9{fill:#293757;}.cls-10,.cls-13{fill:#d2d7e9;}.cls-10{opacity:0.55;}.cls-11{fill:#f0a96b;}.cls-12{fill:#de9964;}</style></defs><title>Asset 21searching-harry</title><g id="Layer_2" data-name="Layer 2"><g id="Layer_1-2" data-name="Layer 1"><rect class="cls-1" x="14.53" y="28.62" width="4.6" height="6.25"/><ellipse class="cls-1" cx="17.67" cy="22.17" rx="7.44" ry="8.75"/><path d="M20.83,29.08l-7.43.28s-3.75-3.13-4.15-10c0,0-.31-.31-.39.33,0,0-.5-.55.28-2.09,0,0-.47,0-.6.3a1.91,1.91,0,0,1,1.58-1.76s-.36-1.47.7-2a.78.78,0,0,0,.12.73,2.42,2.42,0,0,1,1-1.69s-.31.84.06,1c0,0,.19-1.7,1.65-1.93,0,0-.86,1.17,0,1.54a2.73,2.73,0,0,1,2.92-2.27s-.85.55-.64,1.29a3.61,3.61,0,0,1,4.24-1.22s-1.74.38-1.61.8a3.92,3.92,0,0,1,3.33-.07s-2.47.53-2.24,1.11a4.31,4.31,0,0,1,3.72.45s-1.73,0-1.71.56a3.71,3.71,0,0,1,3,.87s-1-.07-1.14.32a6.54,6.54,0,0,1,1.55.8s-1.38.21-1.09,1.09a13.78,13.78,0,0,1-.09,3.81c-.35,1.34,0,1.52,0,1.52s-.47,0-.64.83S21.2,29,20.83,29.08Z"/><path class="cls-2" d="M3.38,28.62s17.5,4.63,18.83,4.63,7.67,36.83,7,44.17L3.38,79.75l5.16-39.5S-1.13,39.32,3.38,28.62Z"/><path class="cls-3" d="M38.36,69.43l7-1s-.92-.79,3.18-1.24A5.59,5.59,0,0,0,49,69.35s-3.25,1.5-3.13.53L39,72.69A4.26,4.26,0,0,1,38.36,69.43Z"/><path class="cls-1" d="M39.9,66l1,1.14a3.9,3.9,0,0,1,3.46,1.68c1.16,1.66.87,2.93-1.11,3a.44.44,0,0,1-.42-.62c.16-.35-.39-.63-1.53-1.28,0,0-1-.42-1.25-1s-1.72-.49-1.72-.49Z"/><path class="cls-2" d="M38.21,70.25s.29-3.1,1.29-3.23-12-7.82-12-7.82l1,7.62Z"/><polyline class="cls-4" points="28.51 66.82 16.83 63.08 10.24 49.33"/><polyline class="cls-4" points="19.13 39.33 21.92 56.33 27.49 59.2"/><path class="cls-5" d="M48.51,67.25a5.37,5.37,0,0,0,.52,2.1A1.64,1.64,0,0,0,49,68.16C48.66,67.08,48.51,67.1,48.51,67.25Z"/><path class="cls-6" d="M8.2,79.31s.09,1.86.51,5.07-1.21,13-2.38,14.91a41.24,41.24,0,0,0-4,20.75l6.84,2.09s3.58-13.71,4.58-15.25S14.42,79,14.42,79Z"/><path class="cls-7" d="M25.84,77.72s-1.93,14-2.53,19.53,0,25.5,0,25.5H16.5S14,110.88,14,106.83s.58-9.25.17-12.79-3.52-13.37-3.18-15Z"/><path class="cls-8" d="M1.42,125.67,0,128.75l12.58,3.5s.34-3.37-5.66-6.58Z"/><path class="cls-9" d="M16.92,128.5,16.67,132l13-.33s.62-2-7.29-4.46Z"/><path class="cls-10" d="M48.55,67.18,161,.42l5.82,79.71L49,69.35S48.8,68.57,48.55,67.18Z"/><polygon class="cls-11" points="17.04 122.75 21.67 122.75 21.67 127.34 17.38 128.39 17.04 122.75"/><polygon class="cls-12" points="2.99 120.24 7.5 121.62 6.29 125.67 1.71 125.67 2.99 120.24"/><circle class="cls-13" cx="166.84" cy="39.97" r="39.97"/></g></g></svg>